<?xml version="1.0" encoding="utf-8"?>
<!-- Generator: Adobe Illustrator 22.1.0, SVG Export Plug-In . SVG Version: 6.00 Build 0)  -->
<svg version="1.1" id="Layer_1" xmlns="http://www.w3.org/2000/svg" xmlns:xlink="http://www.w3.org/1999/xlink" x="0px" y="0px"
	 viewBox="0 300 595.3 200" style="enable-background:new 0 0 595.3 841.9;" xml:space="preserve">
<style type="text/css">
	.st0{clip-path:url(#SVGID_5_);}
	.st1{clip-path:url(#SVGID_6_);}
	.st2{clip-path:url(#SVGID_7_);}
	.st3{clip-path:url(#SVGID_8_);}
</style>
<g>
	<g>
		<defs>
			<rect id="SVGID_1_" x="4" y="339.1" width="588.2" height="137.3"/>
		</defs>
		<defs>
			<path id="SVGID_2_" d="M63.2,377.9c0,7.6-5.7,12.9-16.5,12.9H30.6v-25.6h16.2C57.5,365.3,63.2,370.3,63.2,377.9L63.2,377.9
				L63.2,377.9z M97.7,455.5l-28.6-47.1c11.6-5.7,19.9-15.8,19.9-31.7c0-23.1-18.9-36.7-41.4-36.7H5v115.5h25.6V414h13.2l25.1,41.6
				H97.7L97.7,455.5L97.7,455.5z M161.5,405.6h-37.2c1.1-7.1,8.2-14.7,18.6-14.7C153.5,390.9,160.6,398.3,161.5,405.6L161.5,405.6
				L161.5,405.6z M184.2,422.4c0.3-1.9,0.5-5.8,0.5-8.7c0-23.6-17.1-43.2-42.4-43.2c-24.6,0-42.6,19.4-42.6,43.3
				c0,27.3,20.9,44,43.4,44c15.2,0,29-8.1,37.2-19.9l-19.4-10c-4.1,4.8-9.6,8.6-17.5,8.6c-10,0-17.3-6-18.6-14.1H184.2L184.2,422.4
				L184.2,422.4z M250.7,424c0,2.4,0,3.4-1.1,5.5c-3.1,5.7-12.4,8.4-18.1,8.4c-6.2,0-11.9-1.9-11.9-7.8c0-7.4,9-9.1,15.7-10.5
				c7.5-1.6,10.4-2.1,15.5-3.1V424L250.7,424L250.7,424z M250.5,455.5h23.3v-51.4c0-17-11.1-33.8-37-33.8
				c-23.5,0-35.4,13.7-38.5,23.6l22.4,4.4c2-3.7,7.3-7.6,15-7.6c9.3,0,14.9,4.8,14.9,9.9c-4.9,0.6-24.3,3.9-29.4,4.9
				c-14.8,2.9-26.3,11.2-26.3,26.8c0,14.2,12.6,25.2,28.9,25.2c11.3,0,18.9-3.9,25.6-10.5h1.1V455.5L250.5,455.5L250.5,455.5z
				 M342.1,405.9l30.8-33.2h-30.2l-26.6,28V341h-24v114.7h24V434l9-9.7l0.2-0.2l31,51.1h28.4L342.1,405.9L342.1,405.9L342.1,405.9z
				 M410.8,458c10,0,18.3-2.4,20.8-3.2v-20.2c-1.5,0.5-7.9,1.6-13.4,1.6c-7.8,0-11.3-5.2-11.3-12.9v-30.6h23.2v-19.6h-23.2v-21h-24
				v78C382.9,446.8,394.6,458,410.8,458L410.8,458L410.8,458z M504.8,413.5c0,14-8.9,22.9-20.5,22.9c-11.6,0-20.5-8.9-20.5-22.9
				c0-13.9,9.8-22.3,20.5-22.3C495,391.3,504.8,399.7,504.8,413.5L504.8,413.5L504.8,413.5z M528,413.5c0-24.2-19.2-43.2-43.8-43.2
				c-24.4,0-43.8,19-43.8,43.2c0,27.6,21.3,44,43.8,44C506.9,457.6,528,441.1,528,413.5L528,413.5L528,413.5z M590.8,395v-24.7
				c-11.7,0-22.1,7.3-25.2,12.1v-9.7h-23.9v82.6h23.9v-40C565.6,401.8,575.8,395,590.8,395L590.8,395L590.8,395z M590.8,395"/>
		</defs>
		<defs>
			<path id="SVGID_3_" d="M4,339.1h588.2v137.3H4V339.1z M4,339.1"/>
		</defs>
		<defs>
			<rect id="SVGID_4_" x="4" y="-300.1" width="600" height="776.5"/>
		</defs>
		<clipPath id="SVGID_5_">
			<use xlink:href="#SVGID_1_"  style="overflow:visible;"/>
		</clipPath>
		<clipPath id="SVGID_6_" class="st0">
			<use xlink:href="#SVGID_2_"  style="overflow:visible;"/>
		</clipPath>
		<clipPath id="SVGID_7_" class="st1">
			<use xlink:href="#SVGID_3_"  style="overflow:visible;"/>
		</clipPath>
		<clipPath id="SVGID_8_" class="st2">
			<use xlink:href="#SVGID_4_"  style="overflow:visible;"/>
		</clipPath>
		<rect x="0.1" y="335.2" class="st3" width="595.6" height="144.9"/>
	</g>
</g>
</svg>
